ffmpeg started on 2025-06-07 at 17:12:26
Report written to "D:\Convert\FFMetrics\reports\ssim_report-6.txt"
Log level: 32
Command line:
ffmpeg -hide_banner -nostdin -i "G:\\\xc0\xed\xe8\xec\xe5\\\xce\xed\xe3\xee\xe8\xed\xe3\xe8\\!_36_\xce\xf1\xe5\xed\xfc_2024\\DreamCast\\\xdd\xe9, \xd2\xee\xec\xe1\xee!\\\xd2\xc2-1\\[DC] Ooi! Tonbo - 05_Telegram_HEVC.mkv" -i "G:\\\xc0\xed\xe8\xec\xe5\\\xce\xed\xe3\xee\xe8\xed\xe3\xe8\\!_36_\xce\xf1\xe5\xed\xfc_2024\\DreamCast\\\xdd\xe9, \xd2\xee\xec\xe1\xee!\\\xd2\xc2-1\\[DC] Ooi! Tonbo - 05_Telegram.mp4" -lavfi "[0:v]settb=AVTB,setpts=PTS-STARTPTS,format=pix_fmts=yuv420p10,fps=24000/1001,scale=1920:1080:flags=bicubic[main];[1:v]settb=AVTB,setpts=PTS-STARTPTS,format=pix_fmts=yuv420p,fps=24000/1001,scale=1920:1080:flags=bicubic[ref];[main][ref]ssim=eof_action=endall:stats_file='D\\:/Convert/FFMetrics/logs/ssim_logfile-6.txt'" -f null -
Input #0, matroska,webm, from 'G:\Аниме\Онгоинги\!_36_Осень_2024\DreamCast\Эй, Томбо!\ТВ-1\[DC] Ooi! Tonbo - 05_Telegram_HEVC.mkv':
  Metadata:
    COMPATIBLE_BRANDS: isomiso2avc1mp41
    MAJOR_BRAND     : isom
    MINOR_VERSION   : 512
    ENCODER         : Lavf61.7.100
  Duration: 00:24:20.78, start: -0.021000, bitrate: 1128 kb/s
  Stream #0:0: Video: hevc (Main 10), yuv420p10le(tv, bt709, progressive), 1920x1080 [SAR 1:1 DAR 16:9], 23.98 fps, 23.98 tbr, 1k tbn (default)
      Metadata:
        HANDLER_NAME    : VideoHandler
        VENDOR_ID       : [0][0][0][0]
        ENCODER         : Lavc61.19.100 libx265
        BPS             : 932179
        DURATION        : 00:24:19.582708333
        NUMBER_OF_FRAMES: 34995
        NUMBER_OF_BYTES : 170074084
        _STATISTICS_WRITING_APP: mkvpropedit v66.0.0 ('Josie') 64-bit
        _STATISTICS_WRITING_DATE_UTC: 2025-06-05 14:03:29
        _STATISTICS_TAGS: BPS DURATION NUMBER_OF_FRAMES NUMBER_OF_BYTES
  Stream #0:1: Audio: aac (LC), 48000 Hz, stereo, fltp (default)
      Metadata:
        HANDLER_NAME    : SoundHandler
        VENDOR_ID       : [0][0][0][0]
        ENCODER         : Lavc61.19.100 aac
        BPS             : 192756
        DURATION        : 00:24:20.778000000
        NUMBER_OF_FRAMES: 68475
        NUMBER_OF_BYTES : 35196722
        _STATISTICS_WRITING_APP: mkvpropedit v66.0.0 ('Josie') 64-bit
        _STATISTICS_WRITING_DATE_UTC: 2025-06-05 14:03:29
        _STATISTICS_TAGS: BPS DURATION NUMBER_OF_FRAMES NUMBER_OF_BYTES
Input #1, mov,mp4,m4a,3gp,3g2,mj2, from 'G:\Аниме\Онгоинги\!_36_Осень_2024\DreamCast\Эй, Томбо!\ТВ-1\[DC] Ooi! Tonbo - 05_Telegram.mp4':
  Metadata:
    major_brand     : isom
    minor_version   : 512
    compatible_brands: isomiso2avc1mp41
    encoder         : Lavf60.16.100
  Duration: 00:24:20.74, start: 0.000000, bitrate: 3300 kb/s
  Stream #1:0[0x1](und): Video: h264 (High) (avc1 / 0x31637661), yuv420p(tv, bt709, progressive), 1920x1080 [SAR 1:1 DAR 16:9], 3154 kb/s, 23.98 fps, 23.98 tbr, 24k tbn (default)
      Metadata:
        handler_name    : VideoHandler
        vendor_id       : [0][0][0][0]
        encoder         : Lavc60.31.102 h264_qsv
  Stream #1:1[0x2](und): Audio: aac (HE-AACv2) (mp4a / 0x6134706D), 48000 Hz, stereo, fltp, 144 kb/s (default)
      Metadata:
        handler_name    : SoundHandler
        vendor_id       : [0][0][0][0]
Stream mapping:
  Stream #0:0 (hevc) -> settb:default
  Stream #1:0 (h264) -> settb:default
  ssim:default -> Stream #0:0 (wrapped_avframe)
  Stream #0:1 -> #0:1 (aac (native) -> pcm_s16le (native))
Output #0, null, to 'pipe:':
  Metadata:
    COMPATIBLE_BRANDS: isomiso2avc1mp41
    MAJOR_BRAND     : isom
    MINOR_VERSION   : 512
    encoder         : Lavf61.7.100
  Stream #0:0: Video: wrapped_avframe, yuv420p10le(tv, bt709, progressive), 1920x1080 [SAR 1:1 DAR 16:9], q=2-31, 200 kb/s, 23.98 fps, 23.98 tbn
      Metadata:
        encoder         : Lavc61.19.100 wrapped_avframe
  Stream #0:1: Audio: pcm_s16le, 48000 Hz, stereo, s16, 1536 kb/s (default)
      Metadata:
        HANDLER_NAME    : SoundHandler
        VENDOR_ID       : [0][0][0][0]
        _STATISTICS_TAGS: BPS DURATION NUMBER_OF_FRAMES NUMBER_OF_BYTES
        BPS             : 192756
        DURATION        : 00:24:20.778000000
        NUMBER_OF_FRAMES: 68475
        NUMBER_OF_BYTES : 35196722
        _STATISTICS_WRITING_APP: mkvpropedit v66.0.0 ('Josie') 64-bit
        _STATISTICS_WRITING_DATE_UTC: 2025-06-05 14:03:29
        encoder         : Lavc61.19.100 pcm_s16le
frame=  173 fps=0.0 q=-0.0 size=N/A time=00:00:07.21 bitrate=N/A speed=14.3x    frame=  418 fps=406 q=-0.0 size=N/A time=00:00:17.43 bitrate=N/A speed=16.9x    frame=  649 fps=421 q=-0.0 size=N/A time=00:00:27.06 bitrate=N/A speed=17.6x    frame=  875 fps=427 q=-0.0 size=N/A time=00:00:36.49 bitrate=N/A speed=17.8x    frame= 1104 fps=429 q=-0.0 size=N/A time=00:00:46.04 bitrate=N/A speed=17.9x    frame= 1354 fps=439 q=-0.0 size=N/A time=00:00:56.47 bitrate=N/A speed=18.3x    frame= 1594 fps=443 q=-0.0 size=N/A time=00:01:06.48 bitrate=N/A speed=18.5x    frame= 1838 fps=446 q=-0.0 size=N/A time=00:01:16.65 bitrate=N/A speed=18.6x    frame= 2071 fps=447 q=-0.0 size=N/A time=00:01:26.37 bitrate=N/A speed=18.7x    frame= 2291 fps=444 q=-0.0 size=N/A time=00:01:35.55 bitrate=N/A speed=18.5x    frame= 2516 fps=443 q=-0.0 size=N/A time=00:01:44.93 bitrate=N/A speed=18.5x    frame= 2746 fps=443 q=-0.0 size=N/A time=00:01:54.53 bitrate=N/A speed=18.5x    frame= 2974 fps=443 q=-0.0 size=N/A time=00:02:04.04 bitrate=N/A speed=18.5x    frame= 3194 fps=442 q=-0.0 size=N/A time=00:02:13.21 bitrate=N/A speed=18.4x    frame= 3411 fps=441 q=-0.0 size=N/A time=00:02:22.26 bitrate=N/A speed=18.4x    frame= 3633 fps=440 q=-0.0 size=N/A time=00:02:31.52 bitrate=N/A speed=18.3x    frame= 3828 fps=436 q=-0.0 size=N/A time=00:02:39.65 bitrate=N/A speed=18.2x    frame= 4085 fps=440 q=-0.0 size=N/A time=00:02:50.37 bitrate=N/A speed=18.4x    frame= 4357 fps=444 q=-0.0 size=N/A time=00:03:01.72 bitrate=N/A speed=18.5x    frame= 4623 fps=448 q=-0.0 size=N/A time=00:03:12.81 bitrate=N/A speed=18.7x    frame= 4883 fps=450 q=-0.0 size=N/A time=00:03:23.66 bitrate=N/A speed=18.8x    frame= 5159 fps=454 q=-0.0 size=N/A time=00:03:35.17 bitrate=N/A speed=  19x    frame= 5403 fps=456 q=-0.0 size=N/A time=00:03:45.35 bitrate=N/A speed=  19x    frame= 5635 fps=455 q=-0.0 size=N/A time=00:03:55.02 bitrate=N/A speed=  19x    frame= 5898 fps=457 q=-0.0 size=N/A time=00:04:05.99 bitrate=N/A speed=19.1x    frame= 6162 fps=459 q=-0.0 size=N/A time=00:04:17.00 bitrate=N/A speed=19.1x    frame= 6430 fps=461 q=-0.0 size=N/A time=00:04:28.18 bitrate=N/A speed=19.2x    frame= 6711 fps=464 q=-0.0 size=N/A time=00:04:39.90 bitrate=N/A speed=19.3x    frame= 6974 fps=466 q=-0.0 size=N/A time=00:04:50.87 bitrate=N/A speed=19.4x    frame= 7240 fps=467 q=-0.0 size=N/A time=00:05:01.96 bitrate=N/A speed=19.5x    frame= 7513 fps=469 q=-0.0 size=N/A time=00:05:13.35 bitrate=N/A speed=19.6x    frame= 7774 fps=471 q=-0.0 size=N/A time=00:05:24.24 bitrate=N/A speed=19.6x    frame= 8024 fps=471 q=-0.0 size=N/A time=00:05:34.66 bitrate=N/A speed=19.6x    frame= 8300 fps=473 q=-0.0 size=N/A time=00:05:46.17 bitrate=N/A speed=19.7x    frame= 8565 fps=474 q=-0.0 size=N/A time=00:05:57.23 bitrate=N/A speed=19.8x    frame= 8829 fps=475 q=-0.0 size=N/A time=00:06:08.24 bitrate=N/A speed=19.8x    frame= 9085 fps=476 q=-0.0 size=N/A time=00:06:18.92 bitrate=N/A speed=19.8x    frame= 9356 fps=477 q=-0.0 size=N/A time=00:06:30.22 bitrate=N/A speed=19.9x    frame= 9629 fps=478 q=-0.0 size=N/A time=00:06:41.60 bitrate=N/A speed=  20x    frame= 9907 fps=480 q=-0.0 size=N/A time=00:06:53.20 bitrate=N/A speed=  20x    frame=10152 fps=480 q=-0.0 size=N/A time=00:07:03.42 bitrate=N/A speed=  20x    frame=10388 fps=479 q=-0.0 size=N/A time=00:07:13.26 bitrate=N/A speed=  20x    frame=10605 fps=478 q=-0.0 size=N/A time=00:07:22.31 bitrate=N/A speed=19.9x    frame=10849 fps=478 q=-0.0 size=N/A time=00:07:32.49 bitrate=N/A speed=19.9x    frame=11064 fps=476 q=-0.0 size=N/A time=00:07:41.46 bitrate=N/A speed=19.9x    frame=11274 fps=475 q=-0.0 size=N/A time=00:07:50.21 bitrate=N/A speed=19.8x    frame=11496 fps=474 q=-0.0 size=N/A time=00:07:59.47 bitrate=N/A speed=19.8x    frame=11743 fps=474 q=-0.0 size=N/A time=00:08:09.78 bitrate=N/A speed=19.8x    frame=11999 fps=474 q=-0.0 size=N/A time=00:08:20.45 bitrate=N/A speed=19.8x    frame=12216 fps=473 q=-0.0 size=N/A time=00:08:29.50 bitrate=N/A speed=19.7x    frame=12407 fps=471 q=-0.0 size=N/A time=00:08:37.47 bitrate=N/A speed=19.7x    frame=12636 fps=471 q=-0.0 size=N/A time=00:08:47.02 bitrate=N/A speed=19.6x    frame=12871 fps=471 q=-0.0 size=N/A time=00:08:56.82 bitrate=N/A speed=19.6x    frame=13121 fps=471 q=-0.0 size=N/A time=00:09:07.25 bitrate=N/A speed=19.6x    frame=13380 fps=471 q=-0.0 size=N/A time=00:09:18.05 bitrate=N/A speed=19.7x    frame=13670 fps=473 q=-0.0 size=N/A time=00:09:30.15 bitrate=N/A speed=19.7x    frame=13956 fps=475 q=-0.0 size=N/A time=00:09:42.08 bitrate=N/A speed=19.8x    frame=14238 fps=476 q=-0.0 size=N/A time=00:09:53.84 bitrate=N/A speed=19.8x    frame=14482 fps=476 q=-0.0 size=N/A time=00:10:04.02 bitrate=N/A speed=19.8x    frame=14700 fps=475 q=-0.0 size=N/A time=00:10:13.11 bitrate=N/A speed=19.8x    frame=14987 fps=476 q=-0.0 size=N/A time=00:10:25.08 bitrate=N/A speed=19.9x    frame=15225 fps=476 q=-0.0 size=N/A time=00:10:35.00 bitrate=N/A speed=19.8x    frame=15486 fps=476 q=-0.0 size=N/A time=00:10:45.89 bitrate=N/A speed=19.9x    frame=15755 fps=477 q=-0.0 size=N/A time=00:10:57.11 bitrate=N/A speed=19.9x    frame=16018 fps=478 q=-0.0 size=N/A time=00:11:08.08 bitrate=N/A speed=19.9x    frame=16261 fps=477 q=-0.0 size=N/A time=00:11:18.21 bitrate=N/A speed=19.9x    frame=16505 fps=477 q=-0.0 size=N/A time=00:11:28.39 bitrate=N/A speed=19.9x    frame=16746 fps=477 q=-0.0 size=N/A time=00:11:38.44 bitrate=N/A speed=19.9x    frame=16959 fps=476 q=-0.0 size=N/A time=00:11:47.33 bitrate=N/A speed=19.9x    frame=17190 fps=476 q=-0.0 size=N/A time=00:11:56.96 bitrate=N/A speed=19.8x    frame=17387 fps=475 q=-0.0 size=N/A time=00:12:05.18 bitrate=N/A speed=19.8x    frame=17617 fps=474 q=-0.0 size=N/A time=00:12:14.77 bitrate=N/A speed=19.8x    frame=17857 fps=474 q=-0.0 size=N/A time=00:12:24.78 bitrate=N/A speed=19.8x    frame=18111 fps=474 q=-0.0 size=N/A time=00:12:35.37 bitrate=N/A speed=19.8x    frame=18378 fps=475 q=-0.0 size=N/A time=00:12:46.51 bitrate=N/A speed=19.8x    frame=18624 fps=475 q=-0.0 size=N/A time=00:12:56.77 bitrate=N/A speed=19.8x    frame=18877 fps=475 q=-0.0 size=N/A time=00:13:07.32 bitrate=N/A speed=19.8x    frame=19111 fps=475 q=-0.0 size=N/A time=00:13:17.08 bitrate=N/A speed=19.8x    frame=19318 fps=474 q=-0.0 size=N/A time=00:13:25.72 bitrate=N/A speed=19.8x    frame=19604 fps=475 q=-0.0 size=N/A time=00:13:37.65 bitrate=N/A speed=19.8x    frame=19872 fps=475 q=-0.0 size=N/A time=00:13:48.82 bitrate=N/A speed=19.8x    frame=20117 fps=476 q=-0.0 size=N/A time=00:13:59.04 bitrate=N/A speed=19.8x    frame=20412 fps=477 q=-0.0 size=N/A time=00:14:11.35 bitrate=N/A speed=19.9x    frame=20658 fps=477 q=-0.0 size=N/A time=00:14:21.61 bitrate=N/A speed=19.9x    frame=20941 fps=478 q=-0.0 size=N/A time=00:14:33.41 bitrate=N/A speed=19.9x    frame=21208 fps=478 q=-0.0 size=N/A time=00:14:44.55 bitrate=N/A speed=19.9x    frame=21499 fps=479 q=-0.0 size=N/A time=00:14:56.68 bitrate=N/A speed=  20x    frame=21792 fps=480 q=-0.0 size=N/A time=00:15:08.90 bitrate=N/A speed=  20x    frame=22059 fps=480 q=-0.0 size=N/A time=00:15:20.04 bitrate=N/A speed=  20x    frame=22317 fps=481 q=-0.0 size=N/A time=00:15:30.80 bitrate=N/A speed=  20x    frame=22598 fps=481 q=-0.0 size=N/A time=00:15:42.52 bitrate=N/A speed=20.1x    frame=22859 fps=482 q=-0.0 size=N/A time=00:15:53.41 bitrate=N/A speed=20.1x    frame=23151 fps=483 q=-0.0 size=N/A time=00:16:05.58 bitrate=N/A speed=20.1x    frame=23396 fps=482 q=-0.0 size=N/A time=00:16:15.80 bitrate=N/A speed=20.1x    frame=23665 fps=483 q=-0.0 size=N/A time=00:16:27.02 bitrate=N/A speed=20.1x    frame=23926 fps=483 q=-0.0 size=N/A time=00:16:37.91 bitrate=N/A speed=20.1x    frame=24219 fps=484 q=-0.0 size=N/A time=00:16:50.13 bitrate=N/A speed=20.2x    frame=24481 fps=484 q=-0.0 size=N/A time=00:17:01.06 bitrate=N/A speed=20.2x    frame=24730 fps=484 q=-0.0 size=N/A time=00:17:11.44 bitrate=N/A speed=20.2x    frame=24977 fps=484 q=-0.0 size=N/A time=00:17:21.74 bitrate=N/A speed=20.2x    frame=25236 fps=484 q=-0.0 size=N/A time=00:17:32.55 bitrate=N/A speed=20.2x    frame=25525 fps=485 q=-0.0 size=N/A time=00:17:44.60 bitrate=N/A speed=20.2x    frame=25798 fps=486 q=-0.0 size=N/A time=00:17:55.99 bitrate=N/A speed=20.3x    frame=26099 fps=486 q=-0.0 size=N/A time=00:18:08.54 bitrate=N/A speed=20.3x    frame=26397 fps=487 q=-0.0 size=N/A time=00:18:20.97 bitrate=N/A speed=20.3x    frame=26635 fps=487 q=-0.0 size=N/A time=00:18:30.90 bitrate=N/A speed=20.3x    frame=26882 fps=487 q=-0.0 size=N/A time=00:18:41.20 bitrate=N/A speed=20.3x    frame=27121 fps=487 q=-0.0 size=N/A time=00:18:51.17 bitrate=N/A speed=20.3x    frame=27383 fps=487 q=-0.0 size=N/A time=00:19:02.09 bitrate=N/A speed=20.3x    frame=27646 fps=487 q=-0.0 size=N/A time=00:19:13.06 bitrate=N/A speed=20.3x    frame=27907 fps=487 q=-0.0 size=N/A time=00:19:23.95 bitrate=N/A speed=20.3x    frame=28183 fps=488 q=-0.0 size=N/A time=00:19:35.46 bitrate=N/A speed=20.3x    frame=28450 fps=488 q=-0.0 size=N/A time=00:19:46.60 bitrate=N/A speed=20.4x    frame=28707 fps=488 q=-0.0 size=N/A time=00:19:57.32 bitrate=N/A speed=20.4x    frame=28964 fps=488 q=-0.0 size=N/A time=00:20:08.04 bitrate=N/A speed=20.4x    frame=29216 fps=488 q=-0.0 size=N/A time=00:20:18.55 bitrate=N/A speed=20.4x    frame=29451 fps=488 q=-0.0 size=N/A time=00:20:28.35 bitrate=N/A speed=20.3x    frame=29713 fps=488 q=-0.0 size=N/A time=00:20:39.27 bitrate=N/A speed=20.4x    frame=29985 fps=488 q=-0.0 size=N/A time=00:20:50.62 bitrate=N/A speed=20.4x    frame=30273 fps=489 q=-0.0 size=N/A time=00:21:02.63 bitrate=N/A speed=20.4x    frame=30534 fps=489 q=-0.0 size=N/A time=00:21:13.52 bitrate=N/A speed=20.4x    frame=30772 fps=489 q=-0.0 size=N/A time=00:21:23.44 bitrate=N/A speed=20.4x    frame=31012 fps=489 q=-0.0 size=N/A time=00:21:33.45 bitrate=N/A speed=20.4x    frame=31211 fps=488 q=-0.0 size=N/A time=00:21:41.75 bitrate=N/A speed=20.3x    frame=31468 fps=488 q=-0.0 size=N/A time=00:21:52.47 bitrate=N/A speed=20.4x    frame=31736 fps=488 q=-0.0 size=N/A time=00:22:03.65 bitrate=N/A speed=20.4x    frame=32014 fps=489 q=-0.0 size=N/A time=00:22:15.25 bitrate=N/A speed=20.4x    frame=32279 fps=489 q=-0.0 size=N/A time=00:22:26.30 bitrate=N/A speed=20.4x    frame=32509 fps=488 q=-0.0 size=N/A time=00:22:35.89 bitrate=N/A speed=20.4x    frame=32733 fps=488 q=-0.0 size=N/A time=00:22:45.23 bitrate=N/A speed=20.4x    frame=32977 fps=488 q=-0.0 size=N/A time=00:22:55.41 bitrate=N/A speed=20.3x    frame=33194 fps=487 q=-0.0 size=N/A time=00:23:04.46 bitrate=N/A speed=20.3x    frame=33395 fps=487 q=-0.0 size=N/A time=00:23:12.84 bitrate=N/A speed=20.3x    frame=33634 fps=487 q=-0.0 size=N/A time=00:23:22.81 bitrate=N/A speed=20.3x    frame=33855 fps=486 q=-0.0 size=N/A time=00:23:32.03 bitrate=N/A speed=20.3x    frame=34092 fps=486 q=-0.0 size=N/A time=00:23:41.92 bitrate=N/A speed=20.3x    frame=34308 fps=485 q=-0.0 size=N/A time=00:23:50.92 bitrate=N/A speed=20.2x    frame=34542 fps=485 q=-0.0 size=N/A time=00:24:00.68 bitrate=N/A speed=20.2x    frame=34790 fps=485 q=-0.0 size=N/A time=00:24:11.03 bitrate=N/A speed=20.2x    [Parsed_ssim_10 @ 0000016c57ae7380] SSIM Y:0.994726 (22.779008) U:0.993398 (21.802981) V:0.993918 (22.159278) All:0.994370 (22.495074)
[out#0/null @ 0000016c55874200] video:15037KiB audio:273900KiB subtitle:0KiB other streams:0KiB global headers:0KiB muxing overhead: unknown
frame=34995 fps=485 q=-0.0 Lsize=N/A time=00:24:19.58 bitrate=N/A speed=20.2x    
